<svg width="120" height="120" viewBox="0 0 122 122" fill="none" xmlns="http://www.w3.org/2000/svg">
<g clip-path="url(#clip0_6279_510)">
<path d="M76.21 0.000234375L119.45 75.6702C120.94 70.3802 121.75 64.7902 121.75 59.0102C121.75 30.6402 102.4 6.80023 76.21 -0.00976562V0.000234375Z" fill="white"/>
<path d="M76.21 0.000234375L119.45 75.6702C120.94 70.3802 121.75 64.7902 121.75 59.0102C121.75 30.6402 102.4 6.80023 76.21 -0.00976562V0.000234375Z" fill="white"/>
<path d="M60.8699 120C78.0199 120 93.5099 112.89 104.58 101.46H17.1699C28.2299 112.89 43.7299 120 60.8799 120H60.8699Z" fill="white"/>
<path d="M60.8699 120C78.0199 120 93.5099 112.89 104.58 101.46H17.1699C28.2299 112.89 43.7299 120 60.8799 120H60.8699Z" fill="white"/>
<path d="M0 59.03C0 64.81 0.8 70.39 2.3 75.69L45.54 0C19.34 6.82 0 30.66 0 59.03Z" fill="white"/>
<path d="M0 59.03C0 64.81 0.8 70.39 2.3 75.69L45.54 0C19.34 6.82 0 30.66 0 59.03Z" fill="white"/>
<path d="M89.8004 75.5699L60.8704 24.9399L31.9404 75.5699H89.8004Z" fill="white"/>
<path d="M89.8004 75.5699L60.8704 24.9399L31.9404 75.5699H89.8004Z" fill="white"/>
</g>
<defs>
<clipPath id="clip0_6279_510">
<rect width="122" height="122" fill="white"/>
</clipPath>
</defs>
</svg>